<?xml version="1.0" encoding="utf-8"?><svg version="1.1" id="Layer_1" xmlns="http://www.w3.org/2000/svg" xmlns:xlink="http://www.w3.org/1999/xlink" x="0px" y="0px" viewBox="0 0 122.88 95.51" style="enable-background:new 0 0 122.88 95.51" xml:space="preserve"><style type="text/css">.st0{fill-rule:evenodd;clip-rule:evenodd;}</style><g><path class="st0" d="M12.6,26.42h96.77v43.73H12.6V26.42L12.6,26.42z M8.32,0h106.24c4.58,0,8.32,3.74,8.32,8.32v78.87 c0,4.57-3.74,8.32-8.32,8.32H8.32C3.74,95.51,0,91.77,0,87.19V8.32C0,3.74,3.74,0,8.32,0L8.32,0z M117.97,20.1H5.29V88 c0,1.28,1.02,2.3,2.3,2.3h108.04c1.28,0,2.3-1.03,2.3-2.3V20.1H117.97L117.97,20.1z M106.64,7.22c2.27,0,4.11,1.84,4.11,4.11 s-1.84,4.11-4.11,4.11c-2.27,0-4.11-1.84-4.11-4.11S104.38,7.22,106.64,7.22L106.64,7.22z M78.8,7.22c2.27,0,4.11,1.84,4.11,4.11 s-1.84,4.11-4.11,4.11c-2.27,0-4.11-1.84-4.11-4.11S76.53,7.22,78.8,7.22L78.8,7.22z M92.72,7.22c2.27,0,4.11,1.84,4.11,4.11 s-1.84,4.11-4.11,4.11c-2.27,0-4.11-1.84-4.11-4.11S90.45,7.22,92.72,7.22L92.72,7.22z M76.73,43.36h-1.97 c-1.21,0-2.26-1.02-2.35-2.2c0-6.26-5.05-10.97-11.36-10.97l-5.76,0c-6.3,0-11.42,5.08-11.42,11.34v12.44 c0,6.26,5.12,11.34,11.42,11.34h12.29C73.9,65.32,79,60.24,79,53.98l0-8.04C79,44.69,77.99,43.36,76.73,43.36L76.73,43.36 L76.73,43.36L76.73,43.36z M54.85,38.97h6.59c1.21,0,2.2,0.99,2.2,2.2c0,1.21-0.99,2.19-2.2,2.19l-6.58,0c-1.21,0-2.2-0.99-2.2-2.2 C52.66,39.96,53.65,38.97,54.85,38.97L54.85,38.97L54.85,38.97L54.85,38.97z M68.03,56.53H54.85c-1.21,0-2.2-0.99-2.2-2.19 c0-1.21,0.99-2.2,2.2-2.2l13.17,0c1.21,0,2.19,0.99,2.19,2.19C70.22,55.55,69.23,56.53,68.03,56.53L68.03,56.53L68.03,56.53 L68.03,56.53z M66.87,84.74c-1.78,0-3.22-1.57-3.22-3.5c0-1.94,1.44-3.5,3.22-3.5h39.65c1.78,0,3.22,1.57,3.22,3.5 c0,1.93-1.44,3.5-3.22,3.5H66.87L66.87,84.74z M14.96,84.74c-1.76,0-3.19-1.57-3.19-3.5c0-1.94,1.43-3.5,3.19-3.5h36.76 c1.76,0,3.19,1.57,3.19,3.5c0,1.93-1.43,3.5-3.19,3.5H14.96L14.96,84.74z"/></g></svg>