<?xml version="1.0" encoding="utf-8"?><svg version="1.1" id="Layer_1" xmlns="http://www.w3.org/2000/svg" xmlns:xlink="http://www.w3.org/1999/xlink" x="0px" y="0px" viewBox="0 0 122.88 118.31" style="enable-background:new 0 0 122.88 118.31" xml:space="preserve"><style type="text/css">.st0{fill-rule:evenodd;clip-rule:evenodd;}</style><g><path class="st0" d="M7.51,0h107.85c2.05,0,3.93,0.85,5.29,2.21l0.01,0.01l0.01,0.01l0.01,0.01c1.36,1.37,2.2,3.24,2.2,5.29v103.28 c0,2.07-0.85,3.95-2.21,5.31c-1.36,1.36-3.24,2.21-5.31,2.21H7.51c-2.05,0-3.93-0.84-5.3-2.21l-0.01-0.01l-0.01-0.01l-0.01-0.01 c-1.36-1.37-2.2-3.24-2.2-5.29V7.51c0-2.07,0.84-3.95,2.2-5.31c0.08-0.08,0.16-0.16,0.25-0.23C3.79,0.75,5.57,0,7.51,0L7.51,0 L7.51,0z M28.81,55.56l6.23-0.39c0.13,1.01,0.41,1.78,0.83,2.3c0.68,0.86,1.64,1.29,2.9,1.29c0.93,0,1.66-0.22,2.16-0.66 c0.51-0.44,0.76-0.95,0.76-1.53c0-0.55-0.24-1.04-0.72-1.48c-0.48-0.44-1.6-0.84-3.35-1.23c-2.88-0.64-4.92-1.5-6.15-2.58 c-1.24-1.07-1.85-2.43-1.85-4.09c0-1.09,0.32-2.12,0.95-3.09c0.63-0.97,1.58-1.74,2.85-2.29c1.27-0.55,3.01-0.83,5.22-0.83 c2.71,0,4.78,0.5,6.2,1.52c1.42,1.01,2.27,2.62,2.54,4.82l-6.17,0.37c-0.16-0.96-0.51-1.67-1.03-2.1 c-0.53-0.44-1.26-0.66-2.18-0.66c-0.76,0-1.34,0.16-1.73,0.48c-0.39,0.32-0.58,0.72-0.58,1.18c0,0.34,0.16,0.64,0.47,0.91 c0.3,0.28,1.03,0.54,2.19,0.78c2.87,0.62,4.92,1.25,6.16,1.88c1.24,0.63,2.15,1.41,2.71,2.35c0.56,0.93,0.85,1.98,0.85,3.14 c0,1.36-0.38,2.62-1.13,3.77c-0.76,1.15-1.8,2.02-3.16,2.62c-1.35,0.59-3.05,0.89-5.11,0.89c-3.61,0-6.11-0.7-7.5-2.09 C29.78,59.46,28.99,57.7,28.81,55.56L28.81,55.56z M51.41,41.34h17.56v4.54H58v3.38h10.17v4.33H58v4.18h11.3v4.81H51.41V41.34 L51.41,41.34z M72.06,51.98c0-3.47,0.96-6.17,2.9-8.09c1.93-1.93,4.62-2.9,8.07-2.9c3.53,0,6.26,0.95,8.17,2.84 c1.91,1.9,2.87,4.56,2.87,7.97c0,2.48-0.42,4.51-1.25,6.1c-0.84,1.59-2.05,2.82-3.62,3.71c-1.58,0.88-3.55,1.32-5.91,1.32 c-2.39,0-4.38-0.38-5.95-1.14c-1.57-0.77-2.84-1.97-3.82-3.62C72.55,56.53,72.06,54.46,72.06,51.98L72.06,51.98z M78.62,51.99 c0,2.14,0.4,3.68,1.2,4.62c0.8,0.93,1.89,1.4,3.26,1.4c1.41,0,2.51-0.46,3.28-1.37c0.78-0.92,1.16-2.56,1.16-4.94 c0-2-0.41-3.46-1.21-4.38c-0.81-0.92-1.9-1.38-3.29-1.38c-1.32,0-2.39,0.47-3.19,1.4C79.02,48.28,78.62,49.83,78.62,51.99 L78.62,51.99z M65.79,98.75c-1.58,0-2.86-1.39-2.86-3.11c0-1.72,1.28-3.11,2.86-3.11h35.22c1.58,0,2.86,1.39,2.86,3.11 c0,1.72-1.28,3.11-2.86,3.11H65.79L65.79,98.75z M20.82,98.75c-1.56,0-2.83-1.39-2.83-3.11c0-1.72,1.27-3.11,2.83-3.11h32.65 c1.56,0,2.83,1.39,2.83,3.11c0,1.72-1.27,3.11-2.83,3.11H20.82L20.82,98.75z M19.69,85.16c-1.56,0-2.83-1.39-2.83-3.11 c0-1.72,1.27-3.11,2.83-3.11h32.65c1.56,0,2.83,1.39,2.83,3.11c0,1.72-1.27,3.11-2.83,3.11H19.69L19.69,85.16z M65.79,85.16 c-1.58,0-2.86-1.39-2.86-3.11c0-1.72,1.28-3.11,2.86-3.11h35.22c1.58,0,2.86,1.39,2.86,3.11c0,1.72-1.28,3.11-2.86,3.11H65.79 L65.79,85.16z M17.59,34.77h85.94v33.65H17.59V34.77L17.59,34.77z M116.09,26.93c-0.23,0.04-0.48,0.06-0.72,0.06l-107.85,0 c-0.25,0-0.49-0.02-0.72-0.06v83.86c0,0.2,0.08,0.38,0.2,0.51l0.01,0.01c0.13,0.13,0.31,0.2,0.51,0.2l107.85,0 c0.19,0,0.37-0.08,0.51-0.22c0.13-0.13,0.22-0.31,0.22-0.51L116.09,26.93L116.09,26.93L116.09,26.93z M50.12,9.7 c2.7,0,4.88,2.19,4.88,4.88c0,2.7-2.19,4.88-4.88,4.88c-2.7,0-4.88-2.19-4.88-4.88C45.24,11.89,47.43,9.7,50.12,9.7L50.12,9.7z M33.05,9.7c2.7,0,4.88,2.19,4.88,4.88c0,2.7-2.19,4.88-4.88,4.88c-2.7,0-4.88-2.19-4.88-4.88C28.17,11.89,30.36,9.7,33.05,9.7 L33.05,9.7z M15.99,9.7c2.7,0,4.88,2.19,4.88,4.88c0,2.7-2.19,4.88-4.88,4.88c-2.7,0-4.88-2.19-4.88-4.88 C11.11,11.89,13.29,9.7,15.99,9.7L15.99,9.7z"/></g></svg>