<?xml version="1.0" encoding="utf-8"?><svg version="1.1" id="Layer_1" xmlns="http://www.w3.org/2000/svg" xmlns:xlink="http://www.w3.org/1999/xlink" x="0px" y="0px" viewBox="0 0 69.61 122.88" style="enable-background:new 0 0 69.61 122.88" xml:space="preserve"><style type="text/css">.st0{fill-rule:evenodd;clip-rule:evenodd;}</style><g><path class="st0" d="M12.72,0h44.17c3.5,0,6.71,1.44,9,3.72c2.32,2.32,3.72,5.49,3.72,9v97.43c0,3.5-1.44,6.71-3.72,9 c-2.32,2.32-5.49,3.72-9,3.72H12.72c-3.5,0-6.71-1.44-9-3.72c-2.32-2.32-3.72-5.49-3.72-9V12.72c0-3.5,1.44-6.71,3.72-9 C6.05,1.4,9.22,0,12.72,0L12.72,0z M36.43,38.34l12.95,0.04c-0.01,3.45-1.4,6.76-3.86,9.18c-0.58,0.57-1.21,1.09-1.89,1.54 L36.43,38.34L36.43,38.34L36.43,38.34z M12.81,63.87c-0.71,0-1.29-0.58-1.29-1.31c0-0.72,0.58-1.31,1.29-1.31h32.36 c0.71,0,1.29,0.58,1.29,1.31c0,0.72-0.58,1.31-1.29,1.31H12.81L12.81,63.87z M13.02,93.65c-0.71,0-1.29-0.58-1.29-1.31 c0-0.72,0.58-1.31,1.29-1.31H56.8c0.71,0,1.29,0.58,1.29,1.31c0,0.72-0.58,1.31-1.29,1.31H13.02L13.02,93.65z M13.02,83.86 c-0.71,0-1.29-0.58-1.29-1.31c0-0.72,0.58-1.31,1.29-1.31H56.8c0.71,0,1.29,0.58,1.29,1.31c0,0.72-0.58,1.31-1.29,1.31H13.02 L13.02,83.86z M12.81,73.46c-0.71,0-1.29-0.58-1.29-1.31c0-0.72,0.58-1.31,1.29-1.31h13.61c0.71,0,1.29,0.58,1.29,1.31 c0,0.72-0.58,1.31-1.29,1.31H12.81L12.81,73.46z M31.45,73.46c-0.71,0-1.29-0.58-1.29-1.31c0-0.72,0.58-1.31,1.29-1.31H56.8 c0.71,0,1.29,0.58,1.29,1.31c0,0.72-0.58,1.31-1.29,1.31H31.45L31.45,73.46z M33.55,37.75l6.94,12.03 c-2.11,1.22-4.51,1.86-6.94,1.86c-7.67,0-13.89-6.22-13.89-13.89c0-6.89,5.05-12.74,11.87-13.74L33.55,37.75L33.55,37.75z M35.1,35.77l-0.69-13.84c-0.01-0.27,0.2-0.51,0.47-0.52c0.08,0,0.17-0.01,0.28-0.01c0.09,0,0.18,0,0.28-0.01 c3.8-0.04,7.29,1.4,9.9,3.8c2.61,2.4,4.33,5.76,4.6,9.56c0.02,0.27-0.19,0.51-0.46,0.53l-13.85,0.99 c-0.27,0.02-0.51-0.19-0.53-0.46C35.11,35.8,35.1,35.78,35.1,35.77L35.1,35.77L35.1,35.77z M35.43,22.38l0.64,12.86l12.84-0.92 c-0.36-3.33-1.93-6.27-4.24-8.4c-2.43-2.24-5.68-3.58-9.22-3.54L35.43,22.38L35.43,22.38L35.43,22.38z M34.79,107.24 c2.88,0,5.24,2.32,5.24,5.24c0,2.88-2.32,5.24-5.24,5.24c-2.88,0-5.24-2.32-5.24-5.24C29.55,109.6,31.88,107.24,34.79,107.24 L34.79,107.24z M3.61,103.26h62.35V14.62H3.61V103.26L3.61,103.26z"/></g></svg>